<svg xmlns="http://www.w3.org/2000/svg" viewBox="0 0 640 512"><path id="truck-fast-solid" d="M528,0a48.012,48.012,0,0,1,48,48V96h48a16,16,0,0,1,0,32H368a16,16,0,0,0,0,32H592a16,16,0,0,1,0,32H400a16,16,0,0,0,0,32H624a16,16,0,0,1,0,32H432a16,16,0,1,0,0,32H576V416a96,96,0,0,1-192,0H256a96,96,0,1,1-192,0H32a32,32,0,1,1,0-64V237.3A64.022,64.022,0,0,1,50.7,192L128,114.7A64.022,64.022,0,0,1,173.3,96H224V48A48.012,48.012,0,0,1,272,0ZM96,237.3V256H224V160H173.3ZM480,464a48,48,0,1,0-48-48A48.012,48.012,0,0,0,480,464ZM112,416a48,48,0,1,0,48-48A48.012,48.012,0,0,0,112,416Z"></path></svg>